<mxfile host="drawio-plugin" modified="2024-05-26T20:09:06.608Z" agent="5.0 (Macintosh; Intel Mac OS X 10_15_7) AppleWebKit/537.36 (KHTML, like Gecko) Chrome/111.0.0.0 Safari/537.36" etag="LEHzfuNvef0DnMgXtKgT" version="20.5.3" type="embed"><diagram name="Pagina-1" id="4Ygib3siv7Qyeerokqkb"><mxGraphModel dx="2560" dy="483" grid="0" gridSize="10" guides="1" tooltips="1" connect="1" arrows="1" fold="1" page="0" pageScale="1" pageWidth="827" pageHeight="1169" math="0" shadow="0"><root><mxCell id="0"/><mxCell id="1" parent="0"/><mxCell id="aQKAOnEq_MEH_mEKlE9x-1" value="&lt;font style=&quot;font-size: 20px;&quot;&gt;Stateless system&lt;/font&gt;" style="text;html=1;align=center;verticalAlign=middle;resizable=0;points=[];autosize=1;strokeColor=none;fillColor=none;" parent="1" vertex="1"><mxGeometry x="120" y="135" width="170" height="40" as="geometry"/></mxCell><mxCell id="aQKAOnEq_MEH_mEKlE9x-4" style="edgeStyle=orthogonalEdgeStyle;rounded=0;orthogonalLoop=1;jettySize=auto;html=1;entryX=1;entryY=0.5;entryDx=0;entryDy=0;" parent="1" source="aQKAOnEq_MEH_mEKlE9x-2" target="aQKAOnEq_MEH_mEKlE9x-3" edge="1"><mxGeometry relative="1" as="geometry"/></mxCell><mxCell id="aQKAOnEq_MEH_mEKlE9x-2" value="Client" style="whiteSpace=wrap;html=1;aspect=fixed;fillColor=#d5e8d4;strokeColor=#82b366;" parent="1" vertex="1"><mxGeometry x="435" y="210" width="80" height="80" as="geometry"/></mxCell><mxCell id="aQKAOnEq_MEH_mEKlE9x-3" value="Web Service (Calculator API)" style="whiteSpace=wrap;html=1;aspect=fixed;fillColor=#dae8fc;strokeColor=#6c8ebf;" parent="1" vertex="1"><mxGeometry x="20" y="210" width="80" height="80" as="geometry"/></mxCell><mxCell id="aQKAOnEq_MEH_mEKlE9x-5" value="/api/calculator?op=add&amp;amp;a=1&amp;amp;b=2" style="text;html=1;align=center;verticalAlign=middle;resizable=0;points=[];autosize=1;strokeColor=none;fillColor=none;" parent="1" vertex="1"><mxGeometry x="110" y="220" width="200" height="30" as="geometry"/></mxCell><mxCell id="aQKAOnEq_MEH_mEKlE9x-6" value="" style="endArrow=classic;html=1;rounded=0;exitX=1;exitY=0.75;exitDx=0;exitDy=0;entryX=0;entryY=0.75;entryDx=0;entryDy=0;" parent="1" edge="1"><mxGeometry width="50" height="50" relative="1" as="geometry"><mxPoint x="100" y="817" as="sourcePoint"/><mxPoint x="330" y="817" as="targetPoint"/></mxGeometry></mxCell><mxCell id="aQKAOnEq_MEH_mEKlE9x-7" value="Result : 3" style="text;html=1;align=center;verticalAlign=middle;resizable=0;points=[];autosize=1;strokeColor=none;fillColor=none;" parent="1" vertex="1"><mxGeometry x="170" y="810" width="70" height="30" as="geometry"/></mxCell><mxCell id="aQKAOnEq_MEH_mEKlE9x-8" value="Web Service (Calculator API)" style="whiteSpace=wrap;html=1;aspect=fixed;fillColor=#dae8fc;strokeColor=#6c8ebf;" parent="1" vertex="1"><mxGeometry x="20" y="620" width="80" height="80" as="geometry"/></mxCell><mxCell id="aQKAOnEq_MEH_mEKlE9x-10" style="edgeStyle=orthogonalEdgeStyle;rounded=0;orthogonalLoop=1;jettySize=auto;html=1;entryX=1;entryY=0.5;entryDx=0;entryDy=0;" parent="1" source="aQKAOnEq_MEH_mEKlE9x-9" target="aQKAOnEq_MEH_mEKlE9x-8" edge="1"><mxGeometry relative="1" as="geometry"/></mxCell><mxCell id="aQKAOnEq_MEH_mEKlE9x-9" value="Client" style="whiteSpace=wrap;html=1;aspect=fixed;fillColor=#d5e8d4;strokeColor=#82b366;" parent="1" vertex="1"><mxGeometry x="330" y="620" width="80" height="80" as="geometry"/></mxCell><mxCell id="aQKAOnEq_MEH_mEKlE9x-11" value="&lt;span style=&quot;color: rgb(0, 0, 0); font-family: Helvetica; font-size: 12px; font-style: normal; font-variant-ligatures: normal; font-variant-caps: normal; font-weight: 400; letter-spacing: normal; orphans: 2; text-align: center; text-indent: 0px; text-transform: none; widows: 2; word-spacing: 0px; -webkit-text-stroke-width: 0px; background-color: rgb(251, 251, 251); text-decoration-thickness: initial; text-decoration-style: initial; text-decoration-color: initial; float: none; display: inline !important;&quot;&gt;/api/calculator?op=add&amp;amp;a=1&lt;/span&gt;" style="text;whiteSpace=wrap;html=1;" parent="1" vertex="1"><mxGeometry x="120" y="630" width="210" height="40" as="geometry"/></mxCell><mxCell id="aQKAOnEq_MEH_mEKlE9x-12" value="Web Service (Calculator API)" style="whiteSpace=wrap;html=1;aspect=fixed;fillColor=#dae8fc;strokeColor=#6c8ebf;" parent="1" vertex="1"><mxGeometry x="20" y="760" width="80" height="80" as="geometry"/></mxCell><mxCell id="aQKAOnEq_MEH_mEKlE9x-13" style="edgeStyle=orthogonalEdgeStyle;rounded=0;orthogonalLoop=1;jettySize=auto;html=1;entryX=1;entryY=0.5;entryDx=0;entryDy=0;" parent="1" source="aQKAOnEq_MEH_mEKlE9x-14" target="aQKAOnEq_MEH_mEKlE9x-12" edge="1"><mxGeometry relative="1" as="geometry"/></mxCell><mxCell id="aQKAOnEq_MEH_mEKlE9x-14" value="Client" style="whiteSpace=wrap;html=1;aspect=fixed;fillColor=#d5e8d4;strokeColor=#82b366;" parent="1" vertex="1"><mxGeometry x="330" y="760" width="80" height="80" as="geometry"/></mxCell><mxCell id="aQKAOnEq_MEH_mEKlE9x-15" value="&lt;span style=&quot;color: rgb(0, 0, 0); font-family: Helvetica; font-size: 12px; font-style: normal; font-variant-ligatures: normal; font-variant-caps: normal; font-weight: 400; letter-spacing: normal; orphans: 2; text-align: center; text-indent: 0px; text-transform: none; widows: 2; word-spacing: 0px; -webkit-text-stroke-width: 0px; background-color: rgb(251, 251, 251); text-decoration-thickness: initial; text-decoration-style: initial; text-decoration-color: initial; float: none; display: inline !important;&quot;&gt;/api/calculator?op=add&amp;amp;b=1&lt;/span&gt;" style="text;whiteSpace=wrap;html=1;" parent="1" vertex="1"><mxGeometry x="115" y="770" width="210" height="40" as="geometry"/></mxCell><mxCell id="aQKAOnEq_MEH_mEKlE9x-17" value="" style="shape=image;html=1;verticalAlign=top;verticalLabelPosition=bottom;labelBackgroundColor=#ffffff;imageAspect=0;aspect=fixed;image=https://cdn4.iconfinder.com/data/icons/ionicons/512/icon-ios7-refresh-empty-128.png" parent="1" vertex="1"><mxGeometry x="24" y="710" width="20" height="20" as="geometry"/></mxCell><mxCell id="aQKAOnEq_MEH_mEKlE9x-18" value="The api is updating internal state (a=1) for this client" style="text;html=1;align=center;verticalAlign=middle;resizable=0;points=[];autosize=1;strokeColor=none;fillColor=none;" parent="1" vertex="1"><mxGeometry x="30" y="705" width="300" height="30" as="geometry"/></mxCell><mxCell id="aQKAOnEq_MEH_mEKlE9x-19" value="" style="endArrow=classic;html=1;rounded=0;" parent="1" edge="1"><mxGeometry width="50" height="50" relative="1" as="geometry"><mxPoint x="100" y="690" as="sourcePoint"/><mxPoint x="330" y="690" as="targetPoint"/></mxGeometry></mxCell><mxCell id="aQKAOnEq_MEH_mEKlE9x-20" value="No result so far" style="text;html=1;align=center;verticalAlign=middle;resizable=0;points=[];autosize=1;strokeColor=none;fillColor=none;" parent="1" vertex="1"><mxGeometry x="155" y="670" width="100" height="30" as="geometry"/></mxCell><mxCell id="aQKAOnEq_MEH_mEKlE9x-22" value="The api is checking internal state for 'a' value" style="text;html=1;align=center;verticalAlign=middle;resizable=0;points=[];autosize=1;strokeColor=none;fillColor=none;" parent="1" vertex="1"><mxGeometry x="-5" y="840" width="260" height="30" as="geometry"/></mxCell><mxCell id="aQKAOnEq_MEH_mEKlE9x-23" value="&lt;font style=&quot;font-size: 20px;&quot;&gt;Stateful system&lt;/font&gt;" style="text;html=1;align=center;verticalAlign=middle;resizable=0;points=[];autosize=1;strokeColor=none;fillColor=none;" parent="1" vertex="1"><mxGeometry x="115" y="565" width="160" height="40" as="geometry"/></mxCell><mxCell id="aQKAOnEq_MEH_mEKlE9x-24" style="edgeStyle=orthogonalEdgeStyle;rounded=0;orthogonalLoop=1;jettySize=auto;html=1;entryX=1;entryY=0.5;entryDx=0;entryDy=0;" parent="1" source="aQKAOnEq_MEH_mEKlE9x-25" target="aQKAOnEq_MEH_mEKlE9x-26" edge="1"><mxGeometry relative="1" as="geometry"/></mxCell><mxCell id="aQKAOnEq_MEH_mEKlE9x-25" value="Client" style="whiteSpace=wrap;html=1;aspect=fixed;fillColor=#d5e8d4;strokeColor=#82b366;" parent="1" vertex="1"><mxGeometry x="440" y="350" width="80" height="80" as="geometry"/></mxCell><mxCell id="aQKAOnEq_MEH_mEKlE9x-26" value="Generic Web Service&amp;nbsp;" style="whiteSpace=wrap;html=1;aspect=fixed;fillColor=#dae8fc;strokeColor=#6c8ebf;" parent="1" vertex="1"><mxGeometry x="20" y="350" width="80" height="80" as="geometry"/></mxCell><mxCell id="aQKAOnEq_MEH_mEKlE9x-27" value="/api/action" style="text;html=1;align=center;verticalAlign=middle;resizable=0;points=[];autosize=1;strokeColor=none;fillColor=none;" parent="1" vertex="1"><mxGeometry x="110" y="360" width="80" height="30" as="geometry"/></mxCell><mxCell id="aQKAOnEq_MEH_mEKlE9x-28" value="Headers:{Authorization: Bearer}" style="text;html=1;align=center;verticalAlign=middle;resizable=0;points=[];autosize=1;strokeColor=none;fillColor=none;" parent="1" vertex="1"><mxGeometry x="245" y="360" width="190" height="30" as="geometry"/></mxCell><mxCell id="aQKAOnEq_MEH_mEKlE9x-29" value="" style="endArrow=classic;html=1;rounded=0;exitX=1;exitY=0.75;exitDx=0;exitDy=0;entryX=0;entryY=0.75;entryDx=0;entryDy=0;" parent="1" target="aQKAOnEq_MEH_mEKlE9x-37" edge="1"><mxGeometry width="50" height="50" relative="1" as="geometry"><mxPoint x="885" y="932" as="sourcePoint"/><mxPoint x="1115" y="932" as="targetPoint"/></mxGeometry></mxCell><mxCell id="aQKAOnEq_MEH_mEKlE9x-30" value="Response" style="text;html=1;align=center;verticalAlign=middle;resizable=0;points=[];autosize=1;strokeColor=none;fillColor=none;" parent="1" vertex="1"><mxGeometry x="1075" y="925" width="80" height="30" as="geometry"/></mxCell><mxCell id="aQKAOnEq_MEH_mEKlE9x-31" value="Generic Web Service&amp;nbsp;" style="whiteSpace=wrap;html=1;aspect=fixed;fillColor=#dae8fc;strokeColor=#6c8ebf;" parent="1" vertex="1"><mxGeometry x="790" y="620" width="80" height="80" as="geometry"/></mxCell><mxCell id="aQKAOnEq_MEH_mEKlE9x-32" style="edgeStyle=orthogonalEdgeStyle;rounded=0;orthogonalLoop=1;jettySize=auto;html=1;entryX=1;entryY=0.5;entryDx=0;entryDy=0;" parent="1" source="aQKAOnEq_MEH_mEKlE9x-33" target="aQKAOnEq_MEH_mEKlE9x-31" edge="1"><mxGeometry relative="1" as="geometry"/></mxCell><mxCell id="aQKAOnEq_MEH_mEKlE9x-33" value="Client" style="whiteSpace=wrap;html=1;aspect=fixed;fillColor=#d5e8d4;strokeColor=#82b366;" parent="1" vertex="1"><mxGeometry x="1315" y="620" width="80" height="80" as="geometry"/></mxCell><mxCell id="aQKAOnEq_MEH_mEKlE9x-35" value="Generic Web Service&amp;nbsp;" style="whiteSpace=wrap;html=1;aspect=fixed;fillColor=#dae8fc;strokeColor=#6c8ebf;" parent="1" vertex="1"><mxGeometry x="805" y="875" width="80" height="80" as="geometry"/></mxCell><mxCell id="aQKAOnEq_MEH_mEKlE9x-36" style="edgeStyle=orthogonalEdgeStyle;rounded=0;orthogonalLoop=1;jettySize=auto;html=1;entryX=1;entryY=0.5;entryDx=0;entryDy=0;" parent="1" source="aQKAOnEq_MEH_mEKlE9x-37" target="aQKAOnEq_MEH_mEKlE9x-35" edge="1"><mxGeometry relative="1" as="geometry"/></mxCell><mxCell id="aQKAOnEq_MEH_mEKlE9x-37" value="Client" style="whiteSpace=wrap;html=1;aspect=fixed;fillColor=#d5e8d4;strokeColor=#82b366;" parent="1" vertex="1"><mxGeometry x="1330" y="875" width="80" height="80" as="geometry"/></mxCell><mxCell id="aQKAOnEq_MEH_mEKlE9x-39" value="" style="shape=image;html=1;verticalAlign=top;verticalLabelPosition=bottom;labelBackgroundColor=#ffffff;imageAspect=0;aspect=fixed;image=https://cdn4.iconfinder.com/data/icons/ionicons/512/icon-ios7-refresh-empty-128.png" parent="1" vertex="1"><mxGeometry x="794" y="710" width="20" height="20" as="geometry"/></mxCell><mxCell id="aQKAOnEq_MEH_mEKlE9x-40" value="The api is updating internal state (Authorization token) for this client" style="text;html=1;align=center;verticalAlign=middle;resizable=0;points=[];autosize=1;strokeColor=none;fillColor=none;" parent="1" vertex="1"><mxGeometry x="814" y="705" width="380" height="30" as="geometry"/></mxCell><mxCell id="aQKAOnEq_MEH_mEKlE9x-41" value="" style="endArrow=classic;html=1;rounded=0;entryX=-0.023;entryY=0.894;entryDx=0;entryDy=0;entryPerimeter=0;" parent="1" target="aQKAOnEq_MEH_mEKlE9x-33" edge="1"><mxGeometry width="50" height="50" relative="1" as="geometry"><mxPoint x="870" y="690" as="sourcePoint"/><mxPoint x="1100" y="690" as="targetPoint"/></mxGeometry></mxCell><mxCell id="aQKAOnEq_MEH_mEKlE9x-42" value="No result so far" style="text;html=1;align=center;verticalAlign=middle;resizable=0;points=[];autosize=1;strokeColor=none;fillColor=none;" parent="1" vertex="1"><mxGeometry x="1022" y="670" width="100" height="30" as="geometry"/></mxCell><mxCell id="aQKAOnEq_MEH_mEKlE9x-43" value="The api is checking if it already has a value for Authorization token" style="text;html=1;align=center;verticalAlign=middle;resizable=0;points=[];autosize=1;strokeColor=none;fillColor=none;" parent="1" vertex="1"><mxGeometry x="790" y="970" width="380" height="30" as="geometry"/></mxCell><mxCell id="aQKAOnEq_MEH_mEKlE9x-44" value="&lt;font style=&quot;font-size: 20px;&quot;&gt;Stateful system&lt;/font&gt;" style="text;html=1;align=center;verticalAlign=middle;resizable=0;points=[];autosize=1;strokeColor=none;fillColor=none;" parent="1" vertex="1"><mxGeometry x="885" y="565" width="160" height="40" as="geometry"/></mxCell><mxCell id="aQKAOnEq_MEH_mEKlE9x-45" value="/api/action" style="text;html=1;align=center;verticalAlign=middle;resizable=0;points=[];autosize=1;strokeColor=none;fillColor=none;" parent="1" vertex="1"><mxGeometry x="925" y="625" width="80" height="30" as="geometry"/></mxCell><mxCell id="aQKAOnEq_MEH_mEKlE9x-46" value="Headers:{Authorization: Bearer}" style="text;html=1;align=center;verticalAlign=middle;resizable=0;points=[];autosize=1;strokeColor=none;fillColor=none;" parent="1" vertex="1"><mxGeometry x="1060" y="625" width="190" height="30" as="geometry"/></mxCell><mxCell id="aQKAOnEq_MEH_mEKlE9x-48" value="/api/action" style="text;html=1;align=center;verticalAlign=middle;resizable=0;points=[];autosize=1;strokeColor=none;fillColor=none;" parent="1" vertex="1"><mxGeometry x="1070" y="885" width="80" height="30" as="geometry"/></mxCell><mxCell id="aQKAOnEq_MEH_mEKlE9x-49" value="Next time, the user will not pass an authorization token" style="text;html=1;align=center;verticalAlign=middle;resizable=0;points=[];autosize=1;strokeColor=none;fillColor=none;" parent="1" vertex="1"><mxGeometry x="794" y="835" width="310" height="30" as="geometry"/></mxCell><mxCell id="aQKAOnEq_MEH_mEKlE9x-51" value="&lt;font style=&quot;font-size: 20px;&quot;&gt;Back end / Server Caching&lt;/font&gt;" style="text;html=1;strokeColor=none;fillColor=none;align=center;verticalAlign=middle;whiteSpace=wrap;rounded=0;" parent="1" vertex="1"><mxGeometry x="-1105" y="80" width="360" height="120" as="geometry"/></mxCell><mxCell id="aQKAOnEq_MEH_mEKlE9x-56" style="edgeStyle=orthogonalEdgeStyle;rounded=0;orthogonalLoop=1;jettySize=auto;html=1;entryX=1;entryY=0.5;entryDx=0;entryDy=0;" parent="1" source="aQKAOnEq_MEH_mEKlE9x-53" target="aQKAOnEq_MEH_mEKlE9x-55" edge="1"><mxGeometry relative="1" as="geometry"/></mxCell><mxCell id="aQKAOnEq_MEH_mEKlE9x-53" value="Web Service (Back end service)" style="whiteSpace=wrap;html=1;aspect=fixed;fillColor=#dae8fc;strokeColor=#6c8ebf;" parent="1" vertex="1"><mxGeometry x="-950" y="260" width="80" height="80" as="geometry"/></mxCell><mxCell id="aQKAOnEq_MEH_mEKlE9x-63" style="edgeStyle=orthogonalEdgeStyle;rounded=0;orthogonalLoop=1;jettySize=auto;html=1;" parent="1" source="aQKAOnEq_MEH_mEKlE9x-54" target="aQKAOnEq_MEH_mEKlE9x-53" edge="1"><mxGeometry relative="1" as="geometry"/></mxCell><mxCell id="aQKAOnEq_MEH_mEKlE9x-54" value="Http Client&lt;br&gt;(Web Browser - Chrome)" style="whiteSpace=wrap;html=1;aspect=fixed;fillColor=#fff2cc;strokeColor=#d6b656;" parent="1" vertex="1"><mxGeometry x="-670" y="260" width="80" height="80" as="geometry"/></mxCell><mxCell id="aQKAOnEq_MEH_mEKlE9x-55" value="Third party weather provider (api.open-meteo)" style="rounded=1;whiteSpace=wrap;html=1;fillColor=#e1d5e7;strokeColor=#9673a6;" parent="1" vertex="1"><mxGeometry x="-1290" y="270" width="120" height="60" as="geometry"/></mxCell><mxCell id="aQKAOnEq_MEH_mEKlE9x-60" value="Problem statement: The third party refreshes weather data once in an hour, therefore is pointless to call it everytime" style="text;html=1;strokeColor=none;fillColor=none;align=center;verticalAlign=middle;whiteSpace=wrap;rounded=0;" parent="1" vertex="1"><mxGeometry x="-1310" y="320" width="160" height="140" as="geometry"/></mxCell><mxCell id="aQKAOnEq_MEH_mEKlE9x-61" value="GET: /api/meteo/forecast?city=Iasi" style="text;html=1;align=center;verticalAlign=middle;resizable=0;points=[];autosize=1;strokeColor=none;fillColor=none;" parent="1" vertex="1"><mxGeometry x="-1170" y="270" width="210" height="30" as="geometry"/></mxCell><mxCell id="aQKAOnEq_MEH_mEKlE9x-62" value="Call takes 2000 ms" style="text;html=1;align=center;verticalAlign=middle;resizable=0;points=[];autosize=1;strokeColor=none;fillColor=none;" parent="1" vertex="1"><mxGeometry x="-1130" y="300" width="130" height="30" as="geometry"/></mxCell><mxCell id="aQKAOnEq_MEH_mEKlE9x-64" value="" style="endArrow=none;dashed=1;html=1;dashPattern=1 3;strokeWidth=2;rounded=0;" parent="1" edge="1"><mxGeometry width="50" height="50" relative="1" as="geometry"><mxPoint x="-1190" y="473" as="sourcePoint"/><mxPoint x="-620" y="473" as="targetPoint"/></mxGeometry></mxCell><mxCell id="aQKAOnEq_MEH_mEKlE9x-65" value="T0" style="edgeLabel;html=1;align=center;verticalAlign=middle;resizable=0;points=[];" parent="aQKAOnEq_MEH_mEKlE9x-64" vertex="1" connectable="0"><mxGeometry x="-0.858" y="3" relative="1" as="geometry"><mxPoint as="offset"/></mxGeometry></mxCell><mxCell id="aQKAOnEq_MEH_mEKlE9x-70" value="T1" style="edgeLabel;html=1;align=center;verticalAlign=middle;resizable=0;points=[];" parent="aQKAOnEq_MEH_mEKlE9x-64" vertex="1" connectable="0"><mxGeometry x="-0.5506" y="1" relative="1" as="geometry"><mxPoint as="offset"/></mxGeometry></mxCell><mxCell id="aQKAOnEq_MEH_mEKlE9x-76" value="T2" style="edgeLabel;html=1;align=center;verticalAlign=middle;resizable=0;points=[];" parent="aQKAOnEq_MEH_mEKlE9x-64" vertex="1" connectable="0"><mxGeometry x="-0.1877" y="3" relative="1" as="geometry"><mxPoint as="offset"/></mxGeometry></mxCell><mxCell id="aQKAOnEq_MEH_mEKlE9x-78" value="T3" style="edgeLabel;html=1;align=center;verticalAlign=middle;resizable=0;points=[];" parent="aQKAOnEq_MEH_mEKlE9x-64" vertex="1" connectable="0"><mxGeometry x="0.773" y="2" relative="1" as="geometry"><mxPoint as="offset"/></mxGeometry></mxCell><mxCell id="aQKAOnEq_MEH_mEKlE9x-66" value="12:00" style="text;html=1;align=center;verticalAlign=middle;resizable=0;points=[];autosize=1;strokeColor=none;fillColor=none;" parent="1" vertex="1"><mxGeometry x="-1170" y="473" width="50" height="30" as="geometry"/></mxCell><mxCell id="aQKAOnEq_MEH_mEKlE9x-72" value="12:05" style="text;html=1;align=center;verticalAlign=middle;resizable=0;points=[];autosize=1;strokeColor=none;fillColor=none;" parent="1" vertex="1"><mxGeometry x="-1090" y="473" width="50" height="30" as="geometry"/></mxCell><mxCell id="aQKAOnEq_MEH_mEKlE9x-77" value="12:10" style="text;html=1;align=center;verticalAlign=middle;resizable=0;points=[];autosize=1;strokeColor=none;fillColor=none;" parent="1" vertex="1"><mxGeometry x="-980" y="473" width="50" height="30" as="geometry"/></mxCell><mxCell id="aQKAOnEq_MEH_mEKlE9x-79" value="13:01" style="text;html=1;align=center;verticalAlign=middle;resizable=0;points=[];autosize=1;strokeColor=none;fillColor=none;" parent="1" vertex="1"><mxGeometry x="-710" y="473" width="50" height="30" as="geometry"/></mxCell><mxCell id="aQKAOnEq_MEH_mEKlE9x-80" value="" style="rounded=1;whiteSpace=wrap;html=1;dashed=1;fillColor=none;strokeColor=#b85450;" parent="1" vertex="1"><mxGeometry x="-1220" y="438" width="330" height="100" as="geometry"/></mxCell><mxCell id="aQKAOnEq_MEH_mEKlE9x-81" value="" style="rounded=1;whiteSpace=wrap;html=1;dashed=1;fillColor=none;strokeColor=#b85450;" parent="1" vertex="1"><mxGeometry x="-790" y="433" width="180" height="100" as="geometry"/></mxCell><mxCell id="aQKAOnEq_MEH_mEKlE9x-83" value="2000+ ms" style="text;html=1;strokeColor=none;fillColor=none;align=center;verticalAlign=middle;whiteSpace=wrap;rounded=0;" parent="1" vertex="1"><mxGeometry x="-1175" y="503" width="60" height="30" as="geometry"/></mxCell><mxCell id="aQKAOnEq_MEH_mEKlE9x-84" value="2000+ ms" style="text;html=1;strokeColor=none;fillColor=none;align=center;verticalAlign=middle;whiteSpace=wrap;rounded=0;" parent="1" vertex="1"><mxGeometry x="-1090" y="503" width="60" height="30" as="geometry"/></mxCell><mxCell id="aQKAOnEq_MEH_mEKlE9x-85" value="2000+ ms" style="text;html=1;strokeColor=none;fillColor=none;align=center;verticalAlign=middle;whiteSpace=wrap;rounded=0;" parent="1" vertex="1"><mxGeometry x="-980" y="503" width="60" height="30" as="geometry"/></mxCell><mxCell id="aQKAOnEq_MEH_mEKlE9x-86" value="2000+ ms" style="text;html=1;strokeColor=none;fillColor=none;align=center;verticalAlign=middle;whiteSpace=wrap;rounded=0;" parent="1" vertex="1"><mxGeometry x="-710" y="503" width="60" height="30" as="geometry"/></mxCell><mxCell id="aQKAOnEq_MEH_mEKlE9x-87" style="edgeStyle=orthogonalEdgeStyle;rounded=0;orthogonalLoop=1;jettySize=auto;html=1;entryX=1;entryY=0.5;entryDx=0;entryDy=0;exitX=0;exitY=0.5;exitDx=0;exitDy=0;" parent="1" source="aQKAOnEq_MEH_mEKlE9x-88" target="aQKAOnEq_MEH_mEKlE9x-91" edge="1"><mxGeometry relative="1" as="geometry"><mxPoint x="-980" y="940" as="sourcePoint"/></mxGeometry></mxCell><mxCell id="aQKAOnEq_MEH_mEKlE9x-88" value="Web Service (Back end service)" style="whiteSpace=wrap;html=1;aspect=fixed;fillColor=#dae8fc;strokeColor=#6c8ebf;" parent="1" vertex="1"><mxGeometry x="-970" y="900" width="80" height="80" as="geometry"/></mxCell><mxCell id="aQKAOnEq_MEH_mEKlE9x-89" style="edgeStyle=orthogonalEdgeStyle;rounded=0;orthogonalLoop=1;jettySize=auto;html=1;" parent="1" source="aQKAOnEq_MEH_mEKlE9x-90" target="aQKAOnEq_MEH_mEKlE9x-88" edge="1"><mxGeometry relative="1" as="geometry"/></mxCell><mxCell id="aQKAOnEq_MEH_mEKlE9x-90" value="Http Client&lt;br&gt;(Web Browser - Chrome)" style="whiteSpace=wrap;html=1;aspect=fixed;fillColor=#fff2cc;strokeColor=#d6b656;" parent="1" vertex="1"><mxGeometry x="-690" y="900" width="80" height="80" as="geometry"/></mxCell><mxCell id="aQKAOnEq_MEH_mEKlE9x-91" value="Third party weather provider (api.open-meteo)" style="rounded=1;whiteSpace=wrap;html=1;fillColor=#e1d5e7;strokeColor=#9673a6;" parent="1" vertex="1"><mxGeometry x="-1320" y="910" width="120" height="60" as="geometry"/></mxCell><mxCell id="aQKAOnEq_MEH_mEKlE9x-92" value="GET: /api/meteo/forecast?city=Iasi" style="text;html=1;align=center;verticalAlign=middle;resizable=0;points=[];autosize=1;strokeColor=none;fillColor=none;" parent="1" vertex="1"><mxGeometry x="-1200" y="910" width="210" height="30" as="geometry"/></mxCell><mxCell id="aQKAOnEq_MEH_mEKlE9x-93" value="Call takes 2000 ms" style="text;html=1;align=center;verticalAlign=middle;resizable=0;points=[];autosize=1;strokeColor=none;fillColor=none;" parent="1" vertex="1"><mxGeometry x="-1160" y="940" width="130" height="30" as="geometry"/></mxCell><mxCell id="aQKAOnEq_MEH_mEKlE9x-94" value="Requests forecast for a city - Iasi" style="text;html=1;align=center;verticalAlign=middle;resizable=0;points=[];autosize=1;strokeColor=none;fillColor=none;" parent="1" vertex="1"><mxGeometry x="-890" y="910" width="200" height="30" as="geometry"/></mxCell><mxCell id="aQKAOnEq_MEH_mEKlE9x-95" value="Requests forecast for a city - Iasi" style="text;html=1;align=center;verticalAlign=middle;resizable=0;points=[];autosize=1;strokeColor=none;fillColor=none;" parent="1" vertex="1"><mxGeometry x="-870" y="270" width="200" height="30" as="geometry"/></mxCell><mxCell id="aQKAOnEq_MEH_mEKlE9x-96" value="The API is caching (saving) the data in memory, for given city" style="text;html=1;strokeColor=none;fillColor=none;align=center;verticalAlign=middle;whiteSpace=wrap;rounded=0;" parent="1" vertex="1"><mxGeometry x="-980" y="990" width="110" height="80" as="geometry"/></mxCell><mxCell id="aQKAOnEq_MEH_mEKlE9x-101" style="edgeStyle=orthogonalEdgeStyle;rounded=0;orthogonalLoop=1;jettySize=auto;html=1;entryX=1;entryY=0.5;entryDx=0;entryDy=0;" parent="1" target="aQKAOnEq_MEH_mEKlE9x-105" edge="1"><mxGeometry relative="1" as="geometry"><mxPoint x="-1130" y="1170" as="sourcePoint"/></mxGeometry></mxCell><mxCell id="aQKAOnEq_MEH_mEKlE9x-102" value="Web Service (Back end service)" style="whiteSpace=wrap;html=1;aspect=fixed;fillColor=#dae8fc;strokeColor=#6c8ebf;" parent="1" vertex="1"><mxGeometry x="-970" y="1130" width="80" height="80" as="geometry"/></mxCell><mxCell id="aQKAOnEq_MEH_mEKlE9x-103" style="edgeStyle=orthogonalEdgeStyle;rounded=0;orthogonalLoop=1;jettySize=auto;html=1;" parent="1" source="aQKAOnEq_MEH_mEKlE9x-104" target="aQKAOnEq_MEH_mEKlE9x-102" edge="1"><mxGeometry relative="1" as="geometry"/></mxCell><mxCell id="aQKAOnEq_MEH_mEKlE9x-104" value="Http Client&lt;br&gt;(Web Browser - Chrome)" style="whiteSpace=wrap;html=1;aspect=fixed;fillColor=#fff2cc;strokeColor=#d6b656;" parent="1" vertex="1"><mxGeometry x="-690" y="1130" width="80" height="80" as="geometry"/></mxCell><mxCell id="aQKAOnEq_MEH_mEKlE9x-105" value="Third party weather provider (api.open-meteo)" style="rounded=1;whiteSpace=wrap;html=1;fillColor=#e1d5e7;strokeColor=#9673a6;" parent="1" vertex="1"><mxGeometry x="-1530" y="1145" width="120" height="50" as="geometry"/></mxCell><mxCell id="aQKAOnEq_MEH_mEKlE9x-106" value="GET: /api/meteo/forecast?city=Iasi" style="text;html=1;align=center;verticalAlign=middle;resizable=0;points=[];autosize=1;strokeColor=none;fillColor=none;" parent="1" vertex="1"><mxGeometry x="-1400" y="1130" width="210" height="30" as="geometry"/></mxCell><mxCell id="aQKAOnEq_MEH_mEKlE9x-107" value="Call takes 2000 ms" style="text;html=1;align=center;verticalAlign=middle;resizable=0;points=[];autosize=1;strokeColor=none;fillColor=none;" parent="1" vertex="1"><mxGeometry x="-1360" y="1168" width="130" height="30" as="geometry"/></mxCell><mxCell id="aQKAOnEq_MEH_mEKlE9x-108" value="Requests forecast for a city - Iasi" style="text;html=1;align=center;verticalAlign=middle;resizable=0;points=[];autosize=1;strokeColor=none;fillColor=none;" parent="1" vertex="1"><mxGeometry x="-890" y="1140" width="200" height="30" as="geometry"/></mxCell><mxCell id="aQKAOnEq_MEH_mEKlE9x-111" value="" style="curved=1;endArrow=classic;html=1;rounded=0;entryX=0.5;entryY=0;entryDx=0;entryDy=0;" parent="1" target="aQKAOnEq_MEH_mEKlE9x-102" edge="1"><mxGeometry width="50" height="50" relative="1" as="geometry"><mxPoint x="-970" y="1170" as="sourcePoint"/><mxPoint x="-970" y="1120" as="targetPoint"/><Array as="points"><mxPoint x="-970" y="1170"/><mxPoint x="-1050" y="1230"/><mxPoint x="-1090" y="1150"/><mxPoint x="-1060" y="1060"/><mxPoint x="-980" y="1070"/></Array></mxGeometry></mxCell><mxCell id="aQKAOnEq_MEH_mEKlE9x-113" value="Before calling the third party, the api is checking internal cache" style="text;html=1;strokeColor=none;fillColor=none;align=center;verticalAlign=middle;whiteSpace=wrap;rounded=0;" parent="1" vertex="1"><mxGeometry x="-1070" y="1095" width="90" height="65" as="geometry"/></mxCell><mxCell id="aQKAOnEq_MEH_mEKlE9x-114" value="" style="rounded=0;whiteSpace=wrap;html=1;dashed=1;fillColor=none;strokeColor=#b85450;" parent="1" vertex="1"><mxGeometry x="-1550" y="1118" width="433" height="104" as="geometry"/></mxCell><mxCell id="aQKAOnEq_MEH_mEKlE9x-115" value="" style="endArrow=none;dashed=1;html=1;dashPattern=1 3;strokeWidth=2;rounded=0;" parent="1" edge="1"><mxGeometry width="50" height="50" relative="1" as="geometry"><mxPoint x="-1350" y="1340" as="sourcePoint"/><mxPoint x="-780" y="1340" as="targetPoint"/></mxGeometry></mxCell><mxCell id="aQKAOnEq_MEH_mEKlE9x-116" value="T0" style="edgeLabel;html=1;align=center;verticalAlign=middle;resizable=0;points=[];" parent="aQKAOnEq_MEH_mEKlE9x-115" vertex="1" connectable="0"><mxGeometry x="-0.858" y="3" relative="1" as="geometry"><mxPoint as="offset"/></mxGeometry></mxCell><mxCell id="aQKAOnEq_MEH_mEKlE9x-117" value="T1" style="edgeLabel;html=1;align=center;verticalAlign=middle;resizable=0;points=[];" parent="aQKAOnEq_MEH_mEKlE9x-115" vertex="1" connectable="0"><mxGeometry x="-0.5506" y="1" relative="1" as="geometry"><mxPoint as="offset"/></mxGeometry></mxCell><mxCell id="aQKAOnEq_MEH_mEKlE9x-118" value="T2" style="edgeLabel;html=1;align=center;verticalAlign=middle;resizable=0;points=[];" parent="aQKAOnEq_MEH_mEKlE9x-115" vertex="1" connectable="0"><mxGeometry x="-0.1877" y="3" relative="1" as="geometry"><mxPoint as="offset"/></mxGeometry></mxCell><mxCell id="aQKAOnEq_MEH_mEKlE9x-119" value="T3" style="edgeLabel;html=1;align=center;verticalAlign=middle;resizable=0;points=[];" parent="aQKAOnEq_MEH_mEKlE9x-115" vertex="1" connectable="0"><mxGeometry x="0.773" y="2" relative="1" as="geometry"><mxPoint as="offset"/></mxGeometry></mxCell><mxCell id="aQKAOnEq_MEH_mEKlE9x-120" value="12:00" style="text;html=1;align=center;verticalAlign=middle;resizable=0;points=[];autosize=1;strokeColor=none;fillColor=none;" parent="1" vertex="1"><mxGeometry x="-1330" y="1340" width="50" height="30" as="geometry"/></mxCell><mxCell id="aQKAOnEq_MEH_mEKlE9x-121" value="12:05" style="text;html=1;align=center;verticalAlign=middle;resizable=0;points=[];autosize=1;strokeColor=none;fillColor=none;" parent="1" vertex="1"><mxGeometry x="-1250" y="1340" width="50" height="30" as="geometry"/></mxCell><mxCell id="aQKAOnEq_MEH_mEKlE9x-122" value="12:10" style="text;html=1;align=center;verticalAlign=middle;resizable=0;points=[];autosize=1;strokeColor=none;fillColor=none;" parent="1" vertex="1"><mxGeometry x="-1140" y="1340" width="50" height="30" as="geometry"/></mxCell><mxCell id="aQKAOnEq_MEH_mEKlE9x-123" value="13:01" style="text;html=1;align=center;verticalAlign=middle;resizable=0;points=[];autosize=1;strokeColor=none;fillColor=none;" parent="1" vertex="1"><mxGeometry x="-870" y="1340" width="50" height="30" as="geometry"/></mxCell><mxCell id="aQKAOnEq_MEH_mEKlE9x-124" value="" style="rounded=1;whiteSpace=wrap;html=1;dashed=1;fillColor=none;strokeColor=#b85450;" parent="1" vertex="1"><mxGeometry x="-1380" y="1305" width="330" height="100" as="geometry"/></mxCell><mxCell id="aQKAOnEq_MEH_mEKlE9x-125" value="" style="rounded=1;whiteSpace=wrap;html=1;dashed=1;fillColor=none;strokeColor=#b85450;" parent="1" vertex="1"><mxGeometry x="-950" y="1300" width="180" height="100" as="geometry"/></mxCell><mxCell id="aQKAOnEq_MEH_mEKlE9x-126" value="2000+ ms" style="text;html=1;strokeColor=none;fillColor=none;align=center;verticalAlign=middle;whiteSpace=wrap;rounded=0;" parent="1" vertex="1"><mxGeometry x="-1335" y="1370" width="60" height="30" as="geometry"/></mxCell><mxCell id="aQKAOnEq_MEH_mEKlE9x-127" value="100 ms" style="text;html=1;strokeColor=none;fillColor=none;align=center;verticalAlign=middle;whiteSpace=wrap;rounded=0;" parent="1" vertex="1"><mxGeometry x="-1250" y="1370" width="60" height="30" as="geometry"/></mxCell><mxCell id="aQKAOnEq_MEH_mEKlE9x-128" value="100 ms" style="text;html=1;strokeColor=none;fillColor=none;align=center;verticalAlign=middle;whiteSpace=wrap;rounded=0;" parent="1" vertex="1"><mxGeometry x="-1140" y="1370" width="60" height="30" as="geometry"/></mxCell><mxCell id="aQKAOnEq_MEH_mEKlE9x-129" value="2000+ ms" style="text;html=1;strokeColor=none;fillColor=none;align=center;verticalAlign=middle;whiteSpace=wrap;rounded=0;" parent="1" vertex="1"><mxGeometry x="-870" y="1370" width="60" height="30" as="geometry"/></mxCell><mxCell id="iJ8y5fl3CrhjbuTxIyRG-3" value="Client" style="whiteSpace=wrap;html=1;aspect=fixed;fillColor=#d5e8d4;strokeColor=#82b366;" parent="1" vertex="1"><mxGeometry x="860" y="1410" width="80" height="80" as="geometry"/></mxCell><mxCell id="iJ8y5fl3CrhjbuTxIyRG-4" value="Web Service (Calculator API)" style="whiteSpace=wrap;html=1;aspect=fixed;fillColor=#dae8fc;strokeColor=#6c8ebf;" parent="1" vertex="1"><mxGeometry x="165" y="1270" width="80" height="80" as="geometry"/></mxCell><mxCell id="iJ8y5fl3CrhjbuTxIyRG-6" value="/api/calculator?op=add&amp;amp;a=1&amp;amp;b=2" style="text;html=1;align=center;verticalAlign=middle;resizable=0;points=[];autosize=1;strokeColor=none;fillColor=none;" parent="1" vertex="1"><mxGeometry x="634" y="1415" width="200" height="30" as="geometry"/></mxCell><mxCell id="iJ8y5fl3CrhjbuTxIyRG-11" style="edgeStyle=orthogonalEdgeStyle;rounded=0;orthogonalLoop=1;jettySize=auto;html=1;" parent="1" source="iJ8y5fl3CrhjbuTxIyRG-10" target="iJ8y5fl3CrhjbuTxIyRG-3" edge="1"><mxGeometry relative="1" as="geometry"/></mxCell><mxCell id="iJ8y5fl3CrhjbuTxIyRG-17" style="edgeStyle=orthogonalEdgeStyle;rounded=0;orthogonalLoop=1;jettySize=auto;html=1;entryX=1;entryY=0.5;entryDx=0;entryDy=0;dashed=1;dashPattern=12 12;" parent="1" source="iJ8y5fl3CrhjbuTxIyRG-10" target="iJ8y5fl3CrhjbuTxIyRG-4" edge="1"><mxGeometry relative="1" as="geometry"/></mxCell><mxCell id="iJ8y5fl3CrhjbuTxIyRG-18" style="edgeStyle=orthogonalEdgeStyle;rounded=0;orthogonalLoop=1;jettySize=auto;html=1;dashed=1;dashPattern=12 12;" parent="1" source="iJ8y5fl3CrhjbuTxIyRG-10" target="iJ8y5fl3CrhjbuTxIyRG-12" edge="1"><mxGeometry relative="1" as="geometry"/></mxCell><mxCell id="iJ8y5fl3CrhjbuTxIyRG-19" style="edgeStyle=orthogonalEdgeStyle;rounded=0;orthogonalLoop=1;jettySize=auto;html=1;entryX=1;entryY=0.5;entryDx=0;entryDy=0;fillColor=#f8cecc;strokeColor=#b85450;" parent="1" source="iJ8y5fl3CrhjbuTxIyRG-10" target="iJ8y5fl3CrhjbuTxIyRG-13" edge="1"><mxGeometry relative="1" as="geometry"/></mxCell><mxCell id="iJ8y5fl3CrhjbuTxIyRG-10" value="" style="outlineConnect=0;dashed=0;verticalLabelPosition=bottom;verticalAlign=top;align=center;html=1;shape=mxgraph.aws3.classic_load_balancer;fillColor=#F58534;gradientColor=none;" parent="1" vertex="1"><mxGeometry x="540" y="1415" width="80" height="70" as="geometry"/></mxCell><mxCell id="iJ8y5fl3CrhjbuTxIyRG-12" value="Web Service (Calculator API)" style="whiteSpace=wrap;html=1;aspect=fixed;fillColor=#dae8fc;strokeColor=#6c8ebf;" parent="1" vertex="1"><mxGeometry x="165" y="1410" width="80" height="80" as="geometry"/></mxCell><mxCell id="iJ8y5fl3CrhjbuTxIyRG-13" value="Web Service (Calculator API)" style="whiteSpace=wrap;html=1;aspect=fixed;fillColor=#dae8fc;strokeColor=#6c8ebf;" parent="1" vertex="1"><mxGeometry x="165" y="1550" width="80" height="80" as="geometry"/></mxCell><mxCell id="iJ8y5fl3CrhjbuTxIyRG-14" value="Instance 1" style="text;html=1;align=center;verticalAlign=middle;resizable=0;points=[];autosize=1;strokeColor=none;fillColor=none;" parent="1" vertex="1"><mxGeometry x="55" y="1305" width="80" height="30" as="geometry"/></mxCell><mxCell id="iJ8y5fl3CrhjbuTxIyRG-15" value="Instance 2" style="text;html=1;align=center;verticalAlign=middle;resizable=0;points=[];autosize=1;strokeColor=none;fillColor=none;" parent="1" vertex="1"><mxGeometry x="55" y="1440" width="80" height="30" as="geometry"/></mxCell><mxCell id="iJ8y5fl3CrhjbuTxIyRG-16" value="Instance 3" style="text;html=1;align=center;verticalAlign=middle;resizable=0;points=[];autosize=1;strokeColor=none;fillColor=none;" parent="1" vertex="1"><mxGeometry x="55" y="1575" width="80" height="30" as="geometry"/></mxCell><mxCell id="iJ8y5fl3CrhjbuTxIyRG-20" value="/api/calculator?op=add&amp;amp;a=1&amp;amp;b=2" style="text;html=1;align=center;verticalAlign=middle;resizable=0;points=[];autosize=1;strokeColor=none;fillColor=none;" parent="1" vertex="1"><mxGeometry x="255" y="1275" width="200" height="30" as="geometry"/></mxCell><mxCell id="iJ8y5fl3CrhjbuTxIyRG-21" value="/api/calculator?op=add&amp;amp;a=1&amp;amp;b=2" style="text;html=1;align=center;verticalAlign=middle;resizable=0;points=[];autosize=1;strokeColor=none;fillColor=none;" parent="1" vertex="1"><mxGeometry x="245" y="1415" width="200" height="30" as="geometry"/></mxCell><mxCell id="iJ8y5fl3CrhjbuTxIyRG-22" value="/api/calculator?op=add&amp;amp;a=1&amp;amp;b=2" style="text;html=1;align=center;verticalAlign=middle;resizable=0;points=[];autosize=1;strokeColor=none;fillColor=none;" parent="1" vertex="1"><mxGeometry x="255" y="1600" width="200" height="30" as="geometry"/></mxCell><mxCell id="iJ8y5fl3CrhjbuTxIyRG-23" value="Load balancer: forward traffic to 1 instance" style="text;html=1;align=center;verticalAlign=middle;resizable=0;points=[];autosize=1;strokeColor=none;fillColor=none;" parent="1" vertex="1"><mxGeometry x="455" y="1500" width="250" height="30" as="geometry"/></mxCell><mxCell id="iJ8y5fl3CrhjbuTxIyRG-24" value="Client" style="whiteSpace=wrap;html=1;aspect=fixed;fillColor=#d5e8d4;strokeColor=#82b366;" parent="1" vertex="1"><mxGeometry x="1988" y="1350" width="80" height="80" as="geometry"/></mxCell><mxCell id="iJ8y5fl3CrhjbuTxIyRG-25" value="Web Service (Calculator API)" style="whiteSpace=wrap;html=1;aspect=fixed;fillColor=#dae8fc;strokeColor=#6c8ebf;" parent="1" vertex="1"><mxGeometry x="1293" y="1210" width="80" height="80" as="geometry"/></mxCell><mxCell id="iJ8y5fl3CrhjbuTxIyRG-27" style="edgeStyle=orthogonalEdgeStyle;rounded=0;orthogonalLoop=1;jettySize=auto;html=1;" parent="1" source="iJ8y5fl3CrhjbuTxIyRG-31" target="iJ8y5fl3CrhjbuTxIyRG-24" edge="1"><mxGeometry relative="1" as="geometry"/></mxCell><mxCell id="iJ8y5fl3CrhjbuTxIyRG-28" style="edgeStyle=orthogonalEdgeStyle;rounded=0;orthogonalLoop=1;jettySize=auto;html=1;entryX=1;entryY=0.5;entryDx=0;entryDy=0;fillColor=#f8cecc;strokeColor=#b85450;" parent="1" source="iJ8y5fl3CrhjbuTxIyRG-31" target="iJ8y5fl3CrhjbuTxIyRG-25" edge="1"><mxGeometry relative="1" as="geometry"/></mxCell><mxCell id="iJ8y5fl3CrhjbuTxIyRG-29" style="edgeStyle=orthogonalEdgeStyle;rounded=0;orthogonalLoop=1;jettySize=auto;html=1;dashed=1;dashPattern=12 12;" parent="1" source="iJ8y5fl3CrhjbuTxIyRG-31" target="iJ8y5fl3CrhjbuTxIyRG-32" edge="1"><mxGeometry relative="1" as="geometry"/></mxCell><mxCell id="iJ8y5fl3CrhjbuTxIyRG-30" style="edgeStyle=orthogonalEdgeStyle;rounded=0;orthogonalLoop=1;jettySize=auto;html=1;entryX=1;entryY=0.5;entryDx=0;entryDy=0;dashed=1;dashPattern=8 8;" parent="1" source="iJ8y5fl3CrhjbuTxIyRG-31" target="iJ8y5fl3CrhjbuTxIyRG-33" edge="1"><mxGeometry relative="1" as="geometry"/></mxCell><mxCell id="iJ8y5fl3CrhjbuTxIyRG-31" value="" style="outlineConnect=0;dashed=0;verticalLabelPosition=bottom;verticalAlign=top;align=center;html=1;shape=mxgraph.aws3.classic_load_balancer;fillColor=#F58534;gradientColor=none;" parent="1" vertex="1"><mxGeometry x="1668" y="1355" width="80" height="70" as="geometry"/></mxCell><mxCell id="iJ8y5fl3CrhjbuTxIyRG-32" value="Web Service (Calculator API)" style="whiteSpace=wrap;html=1;aspect=fixed;fillColor=#dae8fc;strokeColor=#6c8ebf;" parent="1" vertex="1"><mxGeometry x="1293" y="1350" width="80" height="80" as="geometry"/></mxCell><mxCell id="iJ8y5fl3CrhjbuTxIyRG-33" value="Web Service (Calculator API)" style="whiteSpace=wrap;html=1;aspect=fixed;fillColor=#dae8fc;strokeColor=#6c8ebf;" parent="1" vertex="1"><mxGeometry x="1293" y="1490" width="80" height="80" as="geometry"/></mxCell><mxCell id="iJ8y5fl3CrhjbuTxIyRG-34" value="Instance 1" style="text;html=1;align=center;verticalAlign=middle;resizable=0;points=[];autosize=1;strokeColor=none;fillColor=none;" parent="1" vertex="1"><mxGeometry x="1183" y="1245" width="80" height="30" as="geometry"/></mxCell><mxCell id="iJ8y5fl3CrhjbuTxIyRG-35" value="Instance 2" style="text;html=1;align=center;verticalAlign=middle;resizable=0;points=[];autosize=1;strokeColor=none;fillColor=none;" parent="1" vertex="1"><mxGeometry x="1183" y="1380" width="80" height="30" as="geometry"/></mxCell><mxCell id="iJ8y5fl3CrhjbuTxIyRG-36" value="Instance 3" style="text;html=1;align=center;verticalAlign=middle;resizable=0;points=[];autosize=1;strokeColor=none;fillColor=none;" parent="1" vertex="1"><mxGeometry x="1183" y="1515" width="80" height="30" as="geometry"/></mxCell><mxCell id="iJ8y5fl3CrhjbuTxIyRG-40" value="Load balancer: forward traffic to 1 instance" style="text;html=1;align=center;verticalAlign=middle;resizable=0;points=[];autosize=1;strokeColor=none;fillColor=none;" parent="1" vertex="1"><mxGeometry x="1583" y="1440" width="250" height="30" as="geometry"/></mxCell><mxCell id="iJ8y5fl3CrhjbuTxIyRG-41" value="&amp;nbsp;Horizontal Scaling for Stateful service" style="text;html=1;align=center;verticalAlign=middle;resizable=0;points=[];autosize=1;strokeColor=none;fillColor=none;fontSize=20;" parent="1" vertex="1"><mxGeometry x="1256" y="1090" width="360" height="40" as="geometry"/></mxCell><mxCell id="iJ8y5fl3CrhjbuTxIyRG-42" value="&lt;span style=&quot;color: rgb(0, 0, 0); font-family: Helvetica; font-size: 12px; font-style: normal; font-variant-ligatures: normal; font-variant-caps: normal; font-weight: 400; letter-spacing: normal; orphans: 2; text-align: center; text-indent: 0px; text-transform: none; widows: 2; word-spacing: 0px; -webkit-text-stroke-width: 0px; background-color: rgb(251, 251, 251); text-decoration-thickness: initial; text-decoration-style: initial; text-decoration-color: initial; float: none; display: inline !important;&quot;&gt;/api/calculator?op=add&amp;amp;a=1&lt;/span&gt;" style="text;whiteSpace=wrap;html=1;" parent="1" vertex="1"><mxGeometry x="1778" y="1350" width="210" height="40" as="geometry"/></mxCell><mxCell id="iJ8y5fl3CrhjbuTxIyRG-43" value="&lt;span style=&quot;color: rgb(0, 0, 0); font-family: Helvetica; font-size: 12px; font-style: normal; font-variant-ligatures: normal; font-variant-caps: normal; font-weight: 400; letter-spacing: normal; orphans: 2; text-align: center; text-indent: 0px; text-transform: none; widows: 2; word-spacing: 0px; -webkit-text-stroke-width: 0px; background-color: rgb(251, 251, 251); text-decoration-thickness: initial; text-decoration-style: initial; text-decoration-color: initial; float: none; display: inline !important;&quot;&gt;/api/calculator?op=add&amp;amp;a=1&lt;/span&gt;" style="text;whiteSpace=wrap;html=1;" parent="1" vertex="1"><mxGeometry x="1395" y="1210" width="180" height="40" as="geometry"/></mxCell><mxCell id="iJ8y5fl3CrhjbuTxIyRG-44" value="&lt;span style=&quot;color: rgb(0, 0, 0); font-family: Helvetica; font-size: 12px; font-style: normal; font-variant-ligatures: normal; font-variant-caps: normal; font-weight: 400; letter-spacing: normal; orphans: 2; text-align: center; text-indent: 0px; text-transform: none; widows: 2; word-spacing: 0px; -webkit-text-stroke-width: 0px; background-color: rgb(251, 251, 251); text-decoration-thickness: initial; text-decoration-style: initial; text-decoration-color: initial; float: none; display: inline !important;&quot;&gt;/api/calculator?op=add&amp;amp;a=1&lt;/span&gt;" style="text;whiteSpace=wrap;html=1;" parent="1" vertex="1"><mxGeometry x="1395" y="1360" width="180" height="40" as="geometry"/></mxCell><mxCell id="iJ8y5fl3CrhjbuTxIyRG-45" value="&lt;span style=&quot;color: rgb(0, 0, 0); font-family: Helvetica; font-size: 12px; font-style: normal; font-variant-ligatures: normal; font-variant-caps: normal; font-weight: 400; letter-spacing: normal; orphans: 2; text-align: center; text-indent: 0px; text-transform: none; widows: 2; word-spacing: 0px; -webkit-text-stroke-width: 0px; background-color: rgb(251, 251, 251); text-decoration-thickness: initial; text-decoration-style: initial; text-decoration-color: initial; float: none; display: inline !important;&quot;&gt;/api/calculator?op=add&amp;amp;a=1&lt;/span&gt;" style="text;whiteSpace=wrap;html=1;" parent="1" vertex="1"><mxGeometry x="1403" y="1500" width="180" height="40" as="geometry"/></mxCell><mxCell id="iJ8y5fl3CrhjbuTxIyRG-46" value="Client" style="whiteSpace=wrap;html=1;aspect=fixed;fillColor=#d5e8d4;strokeColor=#82b366;" parent="1" vertex="1"><mxGeometry x="1988" y="1830" width="80" height="80" as="geometry"/></mxCell><mxCell id="iJ8y5fl3CrhjbuTxIyRG-47" value="Web Service (Calculator API)" style="whiteSpace=wrap;html=1;aspect=fixed;fillColor=#dae8fc;strokeColor=#6c8ebf;" parent="1" vertex="1"><mxGeometry x="1293" y="1690" width="80" height="80" as="geometry"/></mxCell><mxCell id="iJ8y5fl3CrhjbuTxIyRG-48" style="edgeStyle=orthogonalEdgeStyle;rounded=0;orthogonalLoop=1;jettySize=auto;html=1;" parent="1" source="iJ8y5fl3CrhjbuTxIyRG-52" target="iJ8y5fl3CrhjbuTxIyRG-46" edge="1"><mxGeometry relative="1" as="geometry"/></mxCell><mxCell id="iJ8y5fl3CrhjbuTxIyRG-49" style="edgeStyle=orthogonalEdgeStyle;rounded=0;orthogonalLoop=1;jettySize=auto;html=1;entryX=1;entryY=0.5;entryDx=0;entryDy=0;dashed=1;dashPattern=12 12;" parent="1" source="iJ8y5fl3CrhjbuTxIyRG-52" target="iJ8y5fl3CrhjbuTxIyRG-47" edge="1"><mxGeometry relative="1" as="geometry"/></mxCell><mxCell id="iJ8y5fl3CrhjbuTxIyRG-50" style="edgeStyle=orthogonalEdgeStyle;rounded=0;orthogonalLoop=1;jettySize=auto;html=1;dashed=1;dashPattern=12 12;" parent="1" source="iJ8y5fl3CrhjbuTxIyRG-52" target="iJ8y5fl3CrhjbuTxIyRG-53" edge="1"><mxGeometry relative="1" as="geometry"/></mxCell><mxCell id="iJ8y5fl3CrhjbuTxIyRG-51" style="edgeStyle=orthogonalEdgeStyle;rounded=0;orthogonalLoop=1;jettySize=auto;html=1;entryX=1;entryY=0.5;entryDx=0;entryDy=0;fillColor=#f8cecc;strokeColor=#b85450;" parent="1" source="iJ8y5fl3CrhjbuTxIyRG-52" target="iJ8y5fl3CrhjbuTxIyRG-54" edge="1"><mxGeometry relative="1" as="geometry"/></mxCell><mxCell id="iJ8y5fl3CrhjbuTxIyRG-52" value="" style="outlineConnect=0;dashed=0;verticalLabelPosition=bottom;verticalAlign=top;align=center;html=1;shape=mxgraph.aws3.classic_load_balancer;fillColor=#F58534;gradientColor=none;" parent="1" vertex="1"><mxGeometry x="1668" y="1835" width="80" height="70" as="geometry"/></mxCell><mxCell id="iJ8y5fl3CrhjbuTxIyRG-53" value="Web Service (Calculator API)" style="whiteSpace=wrap;html=1;aspect=fixed;fillColor=#dae8fc;strokeColor=#6c8ebf;" parent="1" vertex="1"><mxGeometry x="1293" y="1830" width="80" height="80" as="geometry"/></mxCell><mxCell id="iJ8y5fl3CrhjbuTxIyRG-54" value="Web Service (Calculator API)" style="whiteSpace=wrap;html=1;aspect=fixed;fillColor=#dae8fc;strokeColor=#6c8ebf;" parent="1" vertex="1"><mxGeometry x="1293" y="1970" width="80" height="80" as="geometry"/></mxCell><mxCell id="iJ8y5fl3CrhjbuTxIyRG-55" value="Instance 1" style="text;html=1;align=center;verticalAlign=middle;resizable=0;points=[];autosize=1;strokeColor=none;fillColor=none;" parent="1" vertex="1"><mxGeometry x="1183" y="1725" width="80" height="30" as="geometry"/></mxCell><mxCell id="iJ8y5fl3CrhjbuTxIyRG-56" value="Instance 2" style="text;html=1;align=center;verticalAlign=middle;resizable=0;points=[];autosize=1;strokeColor=none;fillColor=none;" parent="1" vertex="1"><mxGeometry x="1183" y="1860" width="80" height="30" as="geometry"/></mxCell><mxCell id="iJ8y5fl3CrhjbuTxIyRG-57" value="Instance 3" style="text;html=1;align=center;verticalAlign=middle;resizable=0;points=[];autosize=1;strokeColor=none;fillColor=none;" parent="1" vertex="1"><mxGeometry x="1183" y="1995" width="80" height="30" as="geometry"/></mxCell><mxCell id="iJ8y5fl3CrhjbuTxIyRG-58" value="Load balancer: forward traffic to 1 instance" style="text;html=1;align=center;verticalAlign=middle;resizable=0;points=[];autosize=1;strokeColor=none;fillColor=none;" parent="1" vertex="1"><mxGeometry x="1583" y="1920" width="250" height="30" as="geometry"/></mxCell><mxCell id="iJ8y5fl3CrhjbuTxIyRG-60" value="&lt;span style=&quot;color: rgb(0, 0, 0); font-family: Helvetica; font-size: 12px; font-style: normal; font-variant-ligatures: normal; font-variant-caps: normal; font-weight: 400; letter-spacing: normal; orphans: 2; text-align: center; text-indent: 0px; text-transform: none; widows: 2; word-spacing: 0px; -webkit-text-stroke-width: 0px; background-color: rgb(251, 251, 251); text-decoration-thickness: initial; text-decoration-style: initial; text-decoration-color: initial; float: none; display: inline !important;&quot;&gt;/api/calculator?op=add&amp;amp;b=1&lt;/span&gt;" style="text;whiteSpace=wrap;html=1;" parent="1" vertex="1"><mxGeometry x="1778" y="1830" width="210" height="40" as="geometry"/></mxCell><mxCell id="iJ8y5fl3CrhjbuTxIyRG-61" value="&lt;span style=&quot;color: rgb(0, 0, 0); font-family: Helvetica; font-size: 12px; font-style: normal; font-variant-ligatures: normal; font-variant-caps: normal; font-weight: 400; letter-spacing: normal; orphans: 2; text-align: center; text-indent: 0px; text-transform: none; widows: 2; word-spacing: 0px; -webkit-text-stroke-width: 0px; background-color: rgb(251, 251, 251); text-decoration-thickness: initial; text-decoration-style: initial; text-decoration-color: initial; float: none; display: inline !important;&quot;&gt;/api/calculator?op=add&amp;amp;a=1&lt;/span&gt;" style="text;whiteSpace=wrap;html=1;" parent="1" vertex="1"><mxGeometry x="1395" y="1690" width="180" height="40" as="geometry"/></mxCell><mxCell id="iJ8y5fl3CrhjbuTxIyRG-62" value="&lt;span style=&quot;color: rgb(0, 0, 0); font-family: Helvetica; font-size: 12px; font-style: normal; font-variant-ligatures: normal; font-variant-caps: normal; font-weight: 400; letter-spacing: normal; orphans: 2; text-align: center; text-indent: 0px; text-transform: none; widows: 2; word-spacing: 0px; -webkit-text-stroke-width: 0px; background-color: rgb(251, 251, 251); text-decoration-thickness: initial; text-decoration-style: initial; text-decoration-color: initial; float: none; display: inline !important;&quot;&gt;/api/calculator?op=add&amp;amp;a=1&lt;/span&gt;" style="text;whiteSpace=wrap;html=1;" parent="1" vertex="1"><mxGeometry x="1395" y="1840" width="180" height="40" as="geometry"/></mxCell><mxCell id="iJ8y5fl3CrhjbuTxIyRG-63" value="&lt;span style=&quot;color: rgb(0, 0, 0); font-family: Helvetica; font-size: 12px; font-style: normal; font-variant-ligatures: normal; font-variant-caps: normal; font-weight: 400; letter-spacing: normal; orphans: 2; text-align: center; text-indent: 0px; text-transform: none; widows: 2; word-spacing: 0px; -webkit-text-stroke-width: 0px; background-color: rgb(251, 251, 251); text-decoration-thickness: initial; text-decoration-style: initial; text-decoration-color: initial; float: none; display: inline !important;&quot;&gt;/api/calculator?op=add&amp;amp;a=1&lt;/span&gt;" style="text;whiteSpace=wrap;html=1;" parent="1" vertex="1"><mxGeometry x="1390" y="1980" width="180" height="40" as="geometry"/></mxCell><mxCell id="iJ8y5fl3CrhjbuTxIyRG-64" value="This instance sets a=1" style="text;html=1;align=center;verticalAlign=middle;resizable=0;points=[];autosize=1;strokeColor=none;fillColor=none;" parent="1" vertex="1"><mxGeometry x="1373" y="1260" width="140" height="30" as="geometry"/></mxCell><mxCell id="iJ8y5fl3CrhjbuTxIyRG-66" value="This instance has state - a=1" style="text;html=1;align=center;verticalAlign=middle;resizable=0;points=[];autosize=1;strokeColor=none;fillColor=none;" parent="1" vertex="1"><mxGeometry x="1350" y="1770" width="180" height="30" as="geometry"/></mxCell><mxCell id="iJ8y5fl3CrhjbuTxIyRG-67" value="This instance has no state set" style="text;html=1;align=center;verticalAlign=middle;resizable=0;points=[];autosize=1;strokeColor=none;fillColor=none;" parent="1" vertex="1"><mxGeometry x="1373" y="2020" width="180" height="30" as="geometry"/></mxCell><mxCell id="iJ8y5fl3CrhjbuTxIyRG-68" value="Response : 1, instead of 3" style="text;html=1;align=center;verticalAlign=middle;resizable=0;points=[];autosize=1;strokeColor=none;fillColor=none;" parent="1" vertex="1"><mxGeometry x="1770" y="1870" width="160" height="30" as="geometry"/></mxCell><mxCell id="iJ8y5fl3CrhjbuTxIyRG-69" value="&lt;font style=&quot;font-size: 12px;&quot;&gt;Response : 3&lt;/font&gt;" style="text;html=1;align=center;verticalAlign=middle;resizable=0;points=[];autosize=1;strokeColor=none;fillColor=none;fontSize=20;" parent="1" vertex="1"><mxGeometry x="689" y="1440" width="90" height="40" as="geometry"/></mxCell><mxCell id="iJ8y5fl3CrhjbuTxIyRG-70" value="&amp;nbsp;Horizontal Scaling for Stateless service" style="text;html=1;align=center;verticalAlign=middle;resizable=0;points=[];autosize=1;strokeColor=none;fillColor=none;fontSize=20;" parent="1" vertex="1"><mxGeometry x="85" y="1160" width="380" height="40" as="geometry"/></mxCell><mxCell id="iJ8y5fl3CrhjbuTxIyRG-71" value="Client" style="whiteSpace=wrap;html=1;aspect=fixed;fillColor=#d5e8d4;strokeColor=#82b366;" parent="1" vertex="1"><mxGeometry x="2060" y="2500" width="80" height="80" as="geometry"/></mxCell><mxCell id="iJ8y5fl3CrhjbuTxIyRG-72" value="Generic Web Service&amp;nbsp;" style="whiteSpace=wrap;html=1;aspect=fixed;fillColor=#dae8fc;strokeColor=#6c8ebf;" parent="1" vertex="1"><mxGeometry x="1293" y="2360" width="80" height="80" as="geometry"/></mxCell><mxCell id="iJ8y5fl3CrhjbuTxIyRG-73" style="edgeStyle=orthogonalEdgeStyle;rounded=0;orthogonalLoop=1;jettySize=auto;html=1;" parent="1" source="iJ8y5fl3CrhjbuTxIyRG-77" target="iJ8y5fl3CrhjbuTxIyRG-71" edge="1"><mxGeometry relative="1" as="geometry"/></mxCell><mxCell id="iJ8y5fl3CrhjbuTxIyRG-74" style="edgeStyle=orthogonalEdgeStyle;rounded=0;orthogonalLoop=1;jettySize=auto;html=1;entryX=1;entryY=0.5;entryDx=0;entryDy=0;fillColor=#f8cecc;strokeColor=#b85450;" parent="1" source="iJ8y5fl3CrhjbuTxIyRG-77" target="iJ8y5fl3CrhjbuTxIyRG-72" edge="1"><mxGeometry relative="1" as="geometry"/></mxCell><mxCell id="iJ8y5fl3CrhjbuTxIyRG-75" style="edgeStyle=orthogonalEdgeStyle;rounded=0;orthogonalLoop=1;jettySize=auto;html=1;dashed=1;dashPattern=12 12;" parent="1" source="iJ8y5fl3CrhjbuTxIyRG-77" target="iJ8y5fl3CrhjbuTxIyRG-78" edge="1"><mxGeometry relative="1" as="geometry"/></mxCell><mxCell id="iJ8y5fl3CrhjbuTxIyRG-76" style="edgeStyle=orthogonalEdgeStyle;rounded=0;orthogonalLoop=1;jettySize=auto;html=1;entryX=1;entryY=0.5;entryDx=0;entryDy=0;dashed=1;dashPattern=8 8;" parent="1" source="iJ8y5fl3CrhjbuTxIyRG-77" target="iJ8y5fl3CrhjbuTxIyRG-79" edge="1"><mxGeometry relative="1" as="geometry"/></mxCell><mxCell id="iJ8y5fl3CrhjbuTxIyRG-77" value="" style="outlineConnect=0;dashed=0;verticalLabelPosition=bottom;verticalAlign=top;align=center;html=1;shape=mxgraph.aws3.classic_load_balancer;fillColor=#F58534;gradientColor=none;" parent="1" vertex="1"><mxGeometry x="1668" y="2505" width="80" height="70" as="geometry"/></mxCell><mxCell id="iJ8y5fl3CrhjbuTxIyRG-78" value="Generic Web Service&amp;nbsp;" style="whiteSpace=wrap;html=1;aspect=fixed;fillColor=#dae8fc;strokeColor=#6c8ebf;" parent="1" vertex="1"><mxGeometry x="1293" y="2500" width="80" height="80" as="geometry"/></mxCell><mxCell id="iJ8y5fl3CrhjbuTxIyRG-79" value="Generic Web Service&amp;nbsp;" style="whiteSpace=wrap;html=1;aspect=fixed;fillColor=#dae8fc;strokeColor=#6c8ebf;" parent="1" vertex="1"><mxGeometry x="1293" y="2640" width="80" height="80" as="geometry"/></mxCell><mxCell id="iJ8y5fl3CrhjbuTxIyRG-80" value="Instance 1" style="text;html=1;align=center;verticalAlign=middle;resizable=0;points=[];autosize=1;strokeColor=none;fillColor=none;" parent="1" vertex="1"><mxGeometry x="1183" y="2395" width="80" height="30" as="geometry"/></mxCell><mxCell id="iJ8y5fl3CrhjbuTxIyRG-81" value="Instance 2" style="text;html=1;align=center;verticalAlign=middle;resizable=0;points=[];autosize=1;strokeColor=none;fillColor=none;" parent="1" vertex="1"><mxGeometry x="1183" y="2530" width="80" height="30" as="geometry"/></mxCell><mxCell id="iJ8y5fl3CrhjbuTxIyRG-82" value="Instance 3" style="text;html=1;align=center;verticalAlign=middle;resizable=0;points=[];autosize=1;strokeColor=none;fillColor=none;" parent="1" vertex="1"><mxGeometry x="1183" y="2665" width="80" height="30" as="geometry"/></mxCell><mxCell id="iJ8y5fl3CrhjbuTxIyRG-83" value="Load balancer: forward traffic to 1 instance" style="text;html=1;align=center;verticalAlign=middle;resizable=0;points=[];autosize=1;strokeColor=none;fillColor=none;" parent="1" vertex="1"><mxGeometry x="1583" y="2590" width="250" height="30" as="geometry"/></mxCell><mxCell id="iJ8y5fl3CrhjbuTxIyRG-88" value="Client" style="whiteSpace=wrap;html=1;aspect=fixed;fillColor=#d5e8d4;strokeColor=#82b366;" parent="1" vertex="1"><mxGeometry x="1988" y="2980" width="80" height="80" as="geometry"/></mxCell><mxCell id="iJ8y5fl3CrhjbuTxIyRG-89" value="Generic Web Service&amp;nbsp;" style="whiteSpace=wrap;html=1;aspect=fixed;fillColor=#dae8fc;strokeColor=#6c8ebf;" parent="1" vertex="1"><mxGeometry x="1293" y="2840" width="80" height="80" as="geometry"/></mxCell><mxCell id="iJ8y5fl3CrhjbuTxIyRG-90" style="edgeStyle=orthogonalEdgeStyle;rounded=0;orthogonalLoop=1;jettySize=auto;html=1;" parent="1" source="iJ8y5fl3CrhjbuTxIyRG-94" target="iJ8y5fl3CrhjbuTxIyRG-88" edge="1"><mxGeometry relative="1" as="geometry"/></mxCell><mxCell id="iJ8y5fl3CrhjbuTxIyRG-91" style="edgeStyle=orthogonalEdgeStyle;rounded=0;orthogonalLoop=1;jettySize=auto;html=1;entryX=1;entryY=0.5;entryDx=0;entryDy=0;dashed=1;dashPattern=12 12;" parent="1" source="iJ8y5fl3CrhjbuTxIyRG-94" target="iJ8y5fl3CrhjbuTxIyRG-89" edge="1"><mxGeometry relative="1" as="geometry"/></mxCell><mxCell id="iJ8y5fl3CrhjbuTxIyRG-92" style="edgeStyle=orthogonalEdgeStyle;rounded=0;orthogonalLoop=1;jettySize=auto;html=1;dashed=1;dashPattern=12 12;" parent="1" source="iJ8y5fl3CrhjbuTxIyRG-94" target="iJ8y5fl3CrhjbuTxIyRG-95" edge="1"><mxGeometry relative="1" as="geometry"/></mxCell><mxCell id="iJ8y5fl3CrhjbuTxIyRG-93" style="edgeStyle=orthogonalEdgeStyle;rounded=0;orthogonalLoop=1;jettySize=auto;html=1;entryX=1;entryY=0.5;entryDx=0;entryDy=0;fillColor=#f8cecc;strokeColor=#b85450;" parent="1" source="iJ8y5fl3CrhjbuTxIyRG-94" target="iJ8y5fl3CrhjbuTxIyRG-96" edge="1"><mxGeometry relative="1" as="geometry"/></mxCell><mxCell id="iJ8y5fl3CrhjbuTxIyRG-94" value="" style="outlineConnect=0;dashed=0;verticalLabelPosition=bottom;verticalAlign=top;align=center;html=1;shape=mxgraph.aws3.classic_load_balancer;fillColor=#F58534;gradientColor=none;" parent="1" vertex="1"><mxGeometry x="1668" y="2985" width="80" height="70" as="geometry"/></mxCell><mxCell id="iJ8y5fl3CrhjbuTxIyRG-95" value="Generic Web Service&amp;nbsp;" style="whiteSpace=wrap;html=1;aspect=fixed;fillColor=#dae8fc;strokeColor=#6c8ebf;" parent="1" vertex="1"><mxGeometry x="1293" y="2980" width="80" height="80" as="geometry"/></mxCell><mxCell id="iJ8y5fl3CrhjbuTxIyRG-96" value="Generic Web Service&amp;nbsp;" style="whiteSpace=wrap;html=1;aspect=fixed;fillColor=#dae8fc;strokeColor=#6c8ebf;" parent="1" vertex="1"><mxGeometry x="1293" y="3120" width="80" height="80" as="geometry"/></mxCell><mxCell id="iJ8y5fl3CrhjbuTxIyRG-97" value="Instance 1" style="text;html=1;align=center;verticalAlign=middle;resizable=0;points=[];autosize=1;strokeColor=none;fillColor=none;" parent="1" vertex="1"><mxGeometry x="1183" y="2875" width="80" height="30" as="geometry"/></mxCell><mxCell id="iJ8y5fl3CrhjbuTxIyRG-98" value="Instance 2" style="text;html=1;align=center;verticalAlign=middle;resizable=0;points=[];autosize=1;strokeColor=none;fillColor=none;" parent="1" vertex="1"><mxGeometry x="1183" y="3010" width="80" height="30" as="geometry"/></mxCell><mxCell id="iJ8y5fl3CrhjbuTxIyRG-99" value="Instance 3" style="text;html=1;align=center;verticalAlign=middle;resizable=0;points=[];autosize=1;strokeColor=none;fillColor=none;" parent="1" vertex="1"><mxGeometry x="1183" y="3145" width="80" height="30" as="geometry"/></mxCell><mxCell id="iJ8y5fl3CrhjbuTxIyRG-100" value="Load balancer: forward traffic to 1 instance" style="text;html=1;align=center;verticalAlign=middle;resizable=0;points=[];autosize=1;strokeColor=none;fillColor=none;" parent="1" vertex="1"><mxGeometry x="1583" y="3070" width="250" height="30" as="geometry"/></mxCell><mxCell id="iJ8y5fl3CrhjbuTxIyRG-102" value="&lt;span style=&quot;color: rgb(0, 0, 0); font-family: Helvetica; font-size: 12px; font-style: normal; font-variant-ligatures: normal; font-variant-caps: normal; font-weight: 400; letter-spacing: normal; orphans: 2; text-align: center; text-indent: 0px; text-transform: none; widows: 2; word-spacing: 0px; -webkit-text-stroke-width: 0px; background-color: rgb(251, 251, 251); text-decoration-thickness: initial; text-decoration-style: initial; text-decoration-color: initial; float: none; display: inline !important;&quot;&gt;/api/calculator?op=add&amp;amp;a=1&lt;/span&gt;" style="text;whiteSpace=wrap;html=1;" parent="1" vertex="1"><mxGeometry x="1395" y="2840" width="180" height="40" as="geometry"/></mxCell><mxCell id="iJ8y5fl3CrhjbuTxIyRG-103" value="&lt;span style=&quot;color: rgb(0, 0, 0); font-family: Helvetica; font-size: 12px; font-style: normal; font-variant-ligatures: normal; font-variant-caps: normal; font-weight: 400; letter-spacing: normal; orphans: 2; text-align: center; text-indent: 0px; text-transform: none; widows: 2; word-spacing: 0px; -webkit-text-stroke-width: 0px; background-color: rgb(251, 251, 251); text-decoration-thickness: initial; text-decoration-style: initial; text-decoration-color: initial; float: none; display: inline !important;&quot;&gt;/api/calculator?op=add&amp;amp;a=1&lt;/span&gt;" style="text;whiteSpace=wrap;html=1;" parent="1" vertex="1"><mxGeometry x="1395" y="2990" width="180" height="40" as="geometry"/></mxCell><mxCell id="iJ8y5fl3CrhjbuTxIyRG-104" value="&lt;span style=&quot;color: rgb(0, 0, 0); font-family: Helvetica; font-size: 12px; font-style: normal; font-variant-ligatures: normal; font-variant-caps: normal; font-weight: 400; letter-spacing: normal; orphans: 2; text-align: center; text-indent: 0px; text-transform: none; widows: 2; word-spacing: 0px; -webkit-text-stroke-width: 0px; background-color: rgb(251, 251, 251); text-decoration-thickness: initial; text-decoration-style: initial; text-decoration-color: initial; float: none; display: inline !important;&quot;&gt;/api/calculator?op=add&amp;amp;a=1&lt;/span&gt;" style="text;whiteSpace=wrap;html=1;" parent="1" vertex="1"><mxGeometry x="1390" y="3130" width="180" height="40" as="geometry"/></mxCell><mxCell id="iJ8y5fl3CrhjbuTxIyRG-105" value="The service is updating internal state (Authorization token) for this client" style="text;html=1;align=center;verticalAlign=middle;resizable=0;points=[];autosize=1;strokeColor=none;fillColor=none;" parent="1" vertex="1"><mxGeometry x="1133" y="2440" width="400" height="30" as="geometry"/></mxCell><mxCell id="iJ8y5fl3CrhjbuTxIyRG-106" value="Just this instance know that the user logged in the pas" style="text;html=1;align=center;verticalAlign=middle;resizable=0;points=[];autosize=1;strokeColor=none;fillColor=none;" parent="1" vertex="1"><mxGeometry x="1129" y="2930" width="310" height="30" as="geometry"/></mxCell><mxCell id="iJ8y5fl3CrhjbuTxIyRG-109" value="/api/action" style="text;html=1;align=center;verticalAlign=middle;resizable=0;points=[];autosize=1;strokeColor=none;fillColor=none;" parent="1" vertex="1"><mxGeometry x="1748" y="2500" width="80" height="30" as="geometry"/></mxCell><mxCell id="iJ8y5fl3CrhjbuTxIyRG-110" value="Headers:{Authorization: Bearer}" style="text;html=1;align=center;verticalAlign=middle;resizable=0;points=[];autosize=1;strokeColor=none;fillColor=none;" parent="1" vertex="1"><mxGeometry x="1833" y="2500" width="190" height="30" as="geometry"/></mxCell><mxCell id="iJ8y5fl3CrhjbuTxIyRG-111" value="/api/action" style="text;html=1;align=center;verticalAlign=middle;resizable=0;points=[];autosize=1;strokeColor=none;fillColor=none;" parent="1" vertex="1"><mxGeometry x="1373" y="2365" width="80" height="30" as="geometry"/></mxCell><mxCell id="iJ8y5fl3CrhjbuTxIyRG-112" value="Headers:{Authorization: Bearer}" style="text;html=1;align=center;verticalAlign=middle;resizable=0;points=[];autosize=1;strokeColor=none;fillColor=none;" parent="1" vertex="1"><mxGeometry x="1458" y="2365" width="190" height="30" as="geometry"/></mxCell><mxCell id="iJ8y5fl3CrhjbuTxIyRG-113" value="/api/action" style="text;html=1;align=center;verticalAlign=middle;resizable=0;points=[];autosize=1;strokeColor=none;fillColor=none;" parent="1" vertex="1"><mxGeometry x="1379" y="2500" width="80" height="30" as="geometry"/></mxCell><mxCell id="iJ8y5fl3CrhjbuTxIyRG-114" value="Headers:{Authorization: Bearer}" style="text;html=1;align=center;verticalAlign=middle;resizable=0;points=[];autosize=1;strokeColor=none;fillColor=none;" parent="1" vertex="1"><mxGeometry x="1464" y="2500" width="190" height="30" as="geometry"/></mxCell><mxCell id="iJ8y5fl3CrhjbuTxIyRG-117" value="/api/action" style="text;html=1;align=center;verticalAlign=middle;resizable=0;points=[];autosize=1;strokeColor=none;fillColor=none;" parent="1" vertex="1"><mxGeometry x="1378" y="2690" width="80" height="30" as="geometry"/></mxCell><mxCell id="iJ8y5fl3CrhjbuTxIyRG-118" value="Headers:{Authorization: Bearer}" style="text;html=1;align=center;verticalAlign=middle;resizable=0;points=[];autosize=1;strokeColor=none;fillColor=none;" parent="1" vertex="1"><mxGeometry x="1464" y="2690" width="190" height="30" as="geometry"/></mxCell><mxCell id="iJ8y5fl3CrhjbuTxIyRG-119" value="This instance has no token associated with current user" style="text;html=1;align=center;verticalAlign=middle;resizable=0;points=[];autosize=1;strokeColor=none;fillColor=none;fontSize=12;" parent="1" vertex="1"><mxGeometry x="1150" y="2590" width="320" height="30" as="geometry"/></mxCell><mxCell id="iJ8y5fl3CrhjbuTxIyRG-120" value="This instance has no token associated with current user" style="text;html=1;align=center;verticalAlign=middle;resizable=0;points=[];autosize=1;strokeColor=none;fillColor=none;fontSize=12;" parent="1" vertex="1"><mxGeometry x="1155" y="2720" width="320" height="30" as="geometry"/></mxCell><mxCell id="iJ8y5fl3CrhjbuTxIyRG-121" value="/api/action" style="text;html=1;align=center;verticalAlign=middle;resizable=0;points=[];autosize=1;strokeColor=none;fillColor=none;" parent="1" vertex="1"><mxGeometry x="1810" y="2980" width="80" height="30" as="geometry"/></mxCell><mxCell id="iJ8y5fl3CrhjbuTxIyRG-122" value="Next time, the user will not pass an authorization token, (the server know that he already logged it)" style="text;html=1;align=center;verticalAlign=middle;resizable=0;points=[];autosize=1;strokeColor=none;fillColor=none;" parent="1" vertex="1"><mxGeometry x="1670" y="2893" width="550" height="30" as="geometry"/></mxCell><mxCell id="iJ8y5fl3CrhjbuTxIyRG-123" value="This instance has no token associated with current user" style="text;html=1;align=center;verticalAlign=middle;resizable=0;points=[];autosize=1;strokeColor=none;fillColor=none;fontSize=12;" parent="1" vertex="1"><mxGeometry x="1133" y="3070" width="320" height="30" as="geometry"/></mxCell><mxCell id="iJ8y5fl3CrhjbuTxIyRG-124" value="This instance has no token associated with current user" style="text;html=1;align=center;verticalAlign=middle;resizable=0;points=[];autosize=1;strokeColor=none;fillColor=none;fontSize=12;" parent="1" vertex="1"><mxGeometry x="1133" y="3200" width="320" height="30" as="geometry"/></mxCell><mxCell id="iJ8y5fl3CrhjbuTxIyRG-125" value="Response: 401 Unauthorized" style="text;html=1;align=center;verticalAlign=middle;resizable=0;points=[];autosize=1;strokeColor=none;fillColor=none;fontSize=12;" parent="1" vertex="1"><mxGeometry x="1760" y="3030" width="180" height="30" as="geometry"/></mxCell><mxCell id="iJ8y5fl3CrhjbuTxIyRG-126" value="&amp;nbsp;Horizontal Scaling for Stateful service second example&lt;span style=&quot;white-space: pre;&quot;&gt;&#9;&lt;/span&gt;" style="text;html=1;align=center;verticalAlign=middle;resizable=0;points=[];autosize=1;strokeColor=none;fillColor=none;fontSize=20;" parent="1" vertex="1"><mxGeometry x="1083" y="2240" width="560" height="40" as="geometry"/></mxCell><mxCell id="iJ8y5fl3CrhjbuTxIyRG-128" value="&lt;span style=&quot;font-size: 20px;&quot;&gt;Browser / Client caching&lt;/span&gt;" style="text;html=1;strokeColor=none;fillColor=none;align=center;verticalAlign=middle;whiteSpace=wrap;rounded=0;" parent="1" vertex="1"><mxGeometry x="-1060" y="1520" width="360" height="120" as="geometry"/></mxCell><mxCell id="iJ8y5fl3CrhjbuTxIyRG-138" style="edgeStyle=orthogonalEdgeStyle;rounded=0;orthogonalLoop=1;jettySize=auto;html=1;fontSize=12;" parent="1" source="iJ8y5fl3CrhjbuTxIyRG-130" target="iJ8y5fl3CrhjbuTxIyRG-132" edge="1"><mxGeometry relative="1" as="geometry"><Array as="points"><mxPoint x="-980" y="1730"/><mxPoint x="-980" y="1730"/></Array></mxGeometry></mxCell><mxCell id="iJ8y5fl3CrhjbuTxIyRG-130" value="Web Service (Back end service) / Web application" style="whiteSpace=wrap;html=1;aspect=fixed;fillColor=#dae8fc;strokeColor=#6c8ebf;" parent="1" vertex="1"><mxGeometry x="-1160" y="1674" width="80" height="80" as="geometry"/></mxCell><mxCell id="iJ8y5fl3CrhjbuTxIyRG-131" style="edgeStyle=orthogonalEdgeStyle;rounded=0;orthogonalLoop=1;jettySize=auto;html=1;" parent="1" source="iJ8y5fl3CrhjbuTxIyRG-132" target="iJ8y5fl3CrhjbuTxIyRG-130" edge="1"><mxGeometry relative="1" as="geometry"/></mxCell><mxCell id="iJ8y5fl3CrhjbuTxIyRG-132" value="Http Client&lt;br&gt;(Web Browser - Chrome)" style="whiteSpace=wrap;html=1;aspect=fixed;fillColor=#fff2cc;strokeColor=#d6b656;" parent="1" vertex="1"><mxGeometry x="-700" y="1674" width="80" height="80" as="geometry"/></mxCell><mxCell id="iJ8y5fl3CrhjbuTxIyRG-136" value="Request call takes 1000 ms" style="text;html=1;align=center;verticalAlign=middle;resizable=0;points=[];autosize=1;strokeColor=none;fillColor=none;" parent="1" vertex="1"><mxGeometry x="-995" y="1680" width="170" height="30" as="geometry"/></mxCell><mxCell id="iJ8y5fl3CrhjbuTxIyRG-140" value="Response, {Headers- Cache-Control: max-age=3600}" style="text;html=1;align=center;verticalAlign=middle;resizable=0;points=[];autosize=1;strokeColor=none;fillColor=none;fontSize=12;" parent="1" vertex="1"><mxGeometry x="-1070" y="1725" width="310" height="30" as="geometry"/></mxCell><mxCell id="iJ8y5fl3CrhjbuTxIyRG-142" value="Web Service (Back end service) / Web application" style="whiteSpace=wrap;html=1;aspect=fixed;fillColor=#dae8fc;strokeColor=#6c8ebf;" parent="1" vertex="1"><mxGeometry x="-1160" y="1880" width="80" height="80" as="geometry"/></mxCell><mxCell id="iJ8y5fl3CrhjbuTxIyRG-143" style="edgeStyle=orthogonalEdgeStyle;rounded=0;orthogonalLoop=1;jettySize=auto;html=1;dashed=1;dashPattern=12 12;fillColor=#f8cecc;strokeColor=#b85450;" parent="1" source="iJ8y5fl3CrhjbuTxIyRG-144" target="iJ8y5fl3CrhjbuTxIyRG-142" edge="1"><mxGeometry relative="1" as="geometry"/></mxCell><mxCell id="iJ8y5fl3CrhjbuTxIyRG-144" value="Http Client&lt;br&gt;(Web Browser - Chrome)" style="whiteSpace=wrap;html=1;aspect=fixed;fillColor=#fff2cc;strokeColor=#d6b656;" parent="1" vertex="1"><mxGeometry x="-700" y="1880" width="80" height="80" as="geometry"/></mxCell><mxCell id="iJ8y5fl3CrhjbuTxIyRG-145" value="Because the client cached the response, there is no request at all" style="text;html=1;align=center;verticalAlign=middle;resizable=0;points=[];autosize=1;strokeColor=none;fillColor=none;" parent="1" vertex="1"><mxGeometry x="-1070" y="1880" width="370" height="30" as="geometry"/></mxCell><mxCell id="iJ8y5fl3CrhjbuTxIyRG-147" value="&lt;font style=&quot;font-size: 22px;&quot;&gt;X&lt;/font&gt;" style="text;html=1;align=center;verticalAlign=middle;resizable=0;points=[];autosize=1;strokeColor=none;fillColor=none;fontSize=12;" parent="1" vertex="1"><mxGeometry x="-930" y="1900" width="40" height="40" as="geometry"/></mxCell><mxCell id="iJ8y5fl3CrhjbuTxIyRG-148" value="&lt;font style=&quot;font-size: 12px;&quot;&gt;Therefore, the page loads instantly&lt;/font&gt;" style="text;html=1;align=center;verticalAlign=middle;resizable=0;points=[];autosize=1;strokeColor=none;fillColor=none;fontSize=22;" parent="1" vertex="1"><mxGeometry x="-1010" y="1930" width="210" height="40" as="geometry"/></mxCell><mxCell id="iJ8y5fl3CrhjbuTxIyRG-149" style="edgeStyle=orthogonalEdgeStyle;rounded=0;orthogonalLoop=1;jettySize=auto;html=1;fontSize=12;" parent="1" source="iJ8y5fl3CrhjbuTxIyRG-150" target="iJ8y5fl3CrhjbuTxIyRG-152" edge="1"><mxGeometry relative="1" as="geometry"><Array as="points"><mxPoint x="-980" y="2136"/><mxPoint x="-980" y="2136"/></Array></mxGeometry></mxCell><mxCell id="iJ8y5fl3CrhjbuTxIyRG-150" value="Web Service (Back end service) / Web application" style="whiteSpace=wrap;html=1;aspect=fixed;fillColor=#dae8fc;strokeColor=#6c8ebf;" parent="1" vertex="1"><mxGeometry x="-1160" y="2080" width="80" height="80" as="geometry"/></mxCell><mxCell id="iJ8y5fl3CrhjbuTxIyRG-151" style="edgeStyle=orthogonalEdgeStyle;rounded=0;orthogonalLoop=1;jettySize=auto;html=1;" parent="1" source="iJ8y5fl3CrhjbuTxIyRG-152" target="iJ8y5fl3CrhjbuTxIyRG-150" edge="1"><mxGeometry relative="1" as="geometry"/></mxCell><mxCell id="iJ8y5fl3CrhjbuTxIyRG-152" value="Http Client&lt;br&gt;(Web Browser - Chrome)" style="whiteSpace=wrap;html=1;aspect=fixed;fillColor=#fff2cc;strokeColor=#d6b656;" parent="1" vertex="1"><mxGeometry x="-700" y="2080" width="80" height="80" as="geometry"/></mxCell><mxCell id="iJ8y5fl3CrhjbuTxIyRG-153" value="Request call takes 1000 ms" style="text;html=1;align=center;verticalAlign=middle;resizable=0;points=[];autosize=1;strokeColor=none;fillColor=none;" parent="1" vertex="1"><mxGeometry x="-965" y="2080" width="170" height="30" as="geometry"/></mxCell><mxCell id="iJ8y5fl3CrhjbuTxIyRG-154" value="Response, {Headers- Cache-Control: max-age=no-cache}" style="text;html=1;align=center;verticalAlign=middle;resizable=0;points=[];autosize=1;strokeColor=none;fillColor=none;fontSize=12;" parent="1" vertex="1"><mxGeometry x="-1060" y="2130" width="330" height="30" as="geometry"/></mxCell><mxCell id="iJ8y5fl3CrhjbuTxIyRG-155" value="" style="endArrow=none;dashed=1;html=1;dashPattern=1 3;strokeWidth=2;rounded=0;fontSize=12;" parent="1" edge="1"><mxGeometry width="50" height="50" relative="1" as="geometry"><mxPoint x="-1170" y="2040" as="sourcePoint"/><mxPoint x="-570" y="2040" as="targetPoint"/></mxGeometry></mxCell><mxCell id="iJ8y5fl3CrhjbuTxIyRG-156" value="By specify no-cache, the client is informed that he should not cache it" style="text;html=1;align=center;verticalAlign=middle;resizable=0;points=[];autosize=1;strokeColor=none;fillColor=none;fontSize=12;" parent="1" vertex="1"><mxGeometry x="-1090" y="2185" width="390" height="30" as="geometry"/></mxCell></root></mxGraphModel></diagram></mxfile>